<?xml version="1.0" standalone="no"?>
<!DOCTYPE svg PUBLIC "-//W3C//DTD SVG 20010904//EN"
 "http://www.w3.org/TR/2001/REC-SVG-20010904/DTD/svg10.dtd">
<svg version="1.0" xmlns="http://www.w3.org/2000/svg"
 width="945.000000pt" height="788.000000pt" viewBox="0 0 945.000000 788.000000"
 preserveAspectRatio="xMidYMid meet">

<g transform="translate(0.000000,788.000000) scale(0.100000,-0.100000)"
fill="#801d1d" stroke="none">
<path d="M3400 6684 c-14 -2 -68 -12 -120 -20 -199 -34 -425 -129 -579 -244
-289 -217 -467 -553 -432 -819 36 -276 251 -444 619 -481 97 -10 289 -6 335 7
13 3 -15 26 -101 82 -160 105 -252 193 -297 285 -157 320 47 643 473 748 125
31 365 31 508 0 273 -59 591 -213 846 -408 l58 -45 162 102 c90 56 176 111
191 121 l28 20 -63 47 c-194 146 -389 263 -658 395 -325 160 -487 204 -775
211 -93 2 -181 2 -195 -1z"/>
<path d="M6645 6639 c-402 -55 -742 -233 -1659 -868 -364 -252 -455 -312 -631
-418 -496 -298 -786 -380 -1470 -412 l-160 -7 95 -46 c386 -185 741 -248 1054
-188 213 41 470 142 716 280 161 91 489 312 795 536 484 355 728 509 1085 688
325 162 604 269 882 338 152 38 155 35 -87 73 -179 29 -495 41 -620 24z"/>
<path d="M7360 6374 c-188 -34 -410 -98 -394 -114 5 -4 41 -13 79 -19 337 -55
515 -155 608 -339 132 -265 31 -540 -250 -684 -164 -84 -283 -112 -483 -112
-336 1 -668 128 -1043 398 -54 39 -104 75 -111 80 -9 6 -70 -28 -202 -114
-104 -67 -191 -125 -194 -127 -8 -8 48 -50 225 -167 531 -354 965 -501 1420
-483 244 10 420 50 602 137 281 134 460 333 546 605 13 44 28 105 31 135 4 30
9 71 12 91 14 108 -35 308 -102 420 -74 123 -227 234 -379 275 -58 16 -309 28
-365 18z"/>
</g>
</svg>
